<?xml version="1.0" standalone="no"?><!DOCTYPE svg PUBLIC "-//W3C//DTD SVG 1.1//EN" "http://www.w3.org/Graphics/SVG/1.1/DTD/svg11.dtd"><svg class="icon" height="512" viewBox="0 0 1024 1024" version="1.1" xmlns="http://www.w3.org/2000/svg"><path d="M720.4864 797.96224a19.98848 19.98848 0 0 0 0.63488-5.09952v-178.81088c0-30.06464-24.90368-54.49728-55.52128-54.49728h-3.91168c-5.7344 0-11.30496 0.83968-16.54784 2.41664a55.5008 55.5008 0 0 0-53.1456-38.72768h-3.91168c-5.632 0-11.07968 0.8192-16.22016 2.33472a55.45984 55.45984 0 0 0-53.4528-39.75168h-3.91168c-4.87424 0-9.6256 0.59392-14.1312 1.76128V396.288c0-30.06464-24.92416-54.49728-55.54176-54.49728h-3.91168c-30.6176 0-55.52128 24.43264-55.52128 54.49728v252.70272l-22.77376-22.1184c-20.91008-20.35712-57.26208-20.29568-78.06976-0.06144l-2.82624 2.72384c-10.62912 10.32192-16.4864 24.08448-16.4864 38.76864s5.85728 28.44672 15.60576 37.86752l107.54048 118.02624c9.13408 10.62912 22.528 16.71168 36.70016 16.71168h247.54176a48.00512 48.00512 0 0 0 47.86176-42.94656z m-301.4656-0.96256l-108.81024-119.35744a12.94336 12.94336 0 0 1-0.04096-18.67776l2.84672-2.74432c2.7648-2.70336 6.49216-4.17792 10.50624-4.17792s7.74144 1.47456 10.52672 4.1984l57.5488 55.86944a20.52096 20.52096 0 0 0 34.73408-14.70464V396.288c0-7.45472 6.53312-13.53728 14.56128-13.53728h3.91168c8.04864 0 14.58176 6.08256 14.58176 13.53728v138.81344a20.48 20.48 0 0 0 40.69376 3.19488c1.04448-6.5536 7.24992-11.53024 14.39744-11.53024h3.91168c8.02816 0 14.56128 6.08256 14.56128 13.53728v32.21504a20.48 20.48 0 0 0 40.69376 3.21536c1.06496-6.57408 7.24992-11.55072 14.41792-11.55072h3.91168c8.02816 0 14.56128 6.08256 14.56128 13.55776v31.08864a20.48 20.48 0 0 0 40.69376 3.21536c1.06496-6.57408 7.24992-11.55072 14.41792-11.55072h3.95264c8.02816 0 14.56128 6.08256 14.56128 13.53728v175.5136a21.42208 21.42208 0 0 0-0.38912 3.97312c0 3.52256-3.21536 6.38976-7.18848 6.38976H425.0624a7.65952 7.65952 0 0 1-6.0416-2.90816zM229.60128 375.05024a20.48 20.48 0 0 0 20.48 20.48h68.54656a20.48 20.48 0 1 0 0-40.96h-68.54656a20.48 20.48 0 0 0-20.48 20.48zM464.03584 272.54784v-66.53952a20.48 20.48 0 1 0-40.96 0v66.53952a20.48 20.48 0 1 0 40.96 0zM367.24736 327.94624h0.4096a20.48 20.48 0 0 0 11.61216-37.35552l-46.22336-44.8512a20.48 20.48 0 1 0-28.52864 29.3888l48.45568 47.04256c3.9936 3.85024 9.13408 5.77536 14.27456 5.77536zM546.304 375.05024a20.48 20.48 0 0 0 20.48 20.48h68.54656a20.48 20.48 0 1 0 0-40.96h-68.54656a20.48 20.48 0 0 0-20.48 20.48zM552.36608 245.71904l-48.45568 47.04256a20.48 20.48 0 0 0 28.52864 29.40928l48.47616-47.06304a20.48 20.48 0 0 0-28.54912-29.3888z" fill="" /></svg>